<svg width="580" height="421" viewBox="0 0 580 421" fill="none" xmlns="http://www.w3.org/2000/svg">
    <path d="M75 110.303V185.303H0V235.303H75V310.303H125V235.303H200V185.303H125V110.303H75Z" fill="black" />
    <path
        d="M421.504 0.29834C334.352 0.29834 264 70.6499 264 157.802C264 262.804 421.504 420.308 421.504 420.308C421.504 420.308 579.007 262.804 579.007 157.802C579.007 70.6499 508.656 0.29834 421.504 0.29834ZM421.504 52.7995C479.78 52.7995 526.506 100.051 526.506 157.802C526.506 216.078 479.78 262.804 421.504 262.804C363.752 262.804 316.501 216.078 316.501 157.802C316.501 100.051 363.752 52.7995 421.504 52.7995Z"
        fill="black" />
</svg>