<svg width="321" height="270" viewBox="0 0 321 270" fill="none" xmlns="http://www.w3.org/2000/svg">
<path d="M78 219C91.8071 219 103 207.807 103 194C103 180.193 91.8071 169 78 169C64.1929 169 53 180.193 53 194C53 207.807 64.1929 219 78 219Z" stroke="#E68383" stroke-width="9.80709" stroke-linecap="round" stroke-linejoin="round"/>
<path d="M238.768 218.507C252.575 218.507 263.768 207.314 263.768 193.507C263.768 179.7 252.575 168.507 238.768 168.507C224.961 168.507 213.768 179.7 213.768 193.507C213.768 207.314 224.961 218.507 238.768 218.507Z" stroke="#E68383" stroke-width="9.80709" stroke-linecap="round" stroke-linejoin="round"/>
<path d="M53.9656 180.626H27.2449V57.0533C27.2449 54.0739 28.6525 51.2165 31.158 49.1098C33.6636 47.003 37.0619 45.8195 40.6052 45.8195H227.65C245.367 45.8195 262.359 54.1044 274.886 68.8517C287.414 83.599 294.452 103.601 294.452 124.456V180.626H261M214.29 180.626H99" stroke="#E68383" stroke-width="9.80709" stroke-linecap="round" stroke-linejoin="round"/>
<path d="M214.5 46L233.262 112.986H293.384" stroke="#E68383" stroke-width="9.80709" stroke-linecap="round" stroke-linejoin="round"/>
<path d="M28 112.339L247.999 113" stroke="#E68383" stroke-width="9.80709" stroke-linecap="round" stroke-linejoin="round"/>
<path d="M93 46L93.5242 112.337" stroke="#E68383" stroke-width="9.80709" stroke-linecap="round" stroke-linejoin="round"/>
<path d="M160 48L160.324 112.337" stroke="#E68383" stroke-width="9.80709" stroke-linecap="round" stroke-linejoin="round"/>
</svg>

