<svg width="46" height="46" viewBox="0 0 46 46" fill="none" xmlns="http://www.w3.org/2000/svg">
    <path
        d="M22.53 3.755C18.8167 3.755 15.1867 4.85614 12.0992 6.91916C9.01164 8.98219 6.6052 11.9144 5.18416 15.3451C3.76313 18.7758 3.39132 22.5508 4.11576 26.1928C4.84019 29.8348 6.62834 33.1802 9.25407 35.8059C11.8798 38.4317 15.2252 40.2198 18.8672 40.9442C22.5092 41.6687 26.2842 41.2969 29.7149 39.8758C33.1456 38.4548 36.0778 36.0484 38.1408 32.9608C40.2039 29.8733 41.305 26.2433 41.305 22.53C41.305 20.0644 40.8194 17.623 39.8758 15.3451C38.9323 13.0672 37.5493 10.9975 35.8059 9.25407C34.0625 7.51066 31.9928 6.1277 29.7149 5.18417C27.437 4.24063 24.9956 3.755 22.53 3.755ZM22.53 37.55C19.5593 37.55 16.6554 36.6691 14.1853 35.0187C11.7153 33.3683 9.79016 31.0225 8.65333 28.2779C7.5165 25.5334 7.21906 22.5133 7.79861 19.5997C8.37816 16.6862 9.80867 14.0098 11.9093 11.9093C14.0098 9.80868 16.6861 8.37816 19.5997 7.79861C22.5133 7.21906 25.5334 7.51651 28.2779 8.65333C31.0225 9.79016 33.3683 11.7153 35.0187 14.1853C36.6691 16.6554 37.55 19.5593 37.55 22.53C37.55 26.5136 35.9675 30.334 33.1507 33.1507C30.3339 35.9675 26.5136 37.55 22.53 37.55Z"
        fill="#444054" />
    <path
        d="M27.618 17.442C27.4435 17.266 27.2358 17.1263 27.007 17.031C26.7783 16.9357 26.5329 16.8866 26.285 16.8866C26.0371 16.8866 25.7917 16.9357 25.563 17.031C25.3342 17.1263 25.1265 17.266 24.952 17.442L22.53 19.8827L20.108 17.442C19.7545 17.0884 19.275 16.8898 18.775 16.8898C18.275 16.8898 17.7955 17.0884 17.442 17.442C17.0884 17.7955 16.8898 18.275 16.8898 18.775C16.8898 19.275 17.0884 19.7545 17.442 20.108L19.8827 22.53L17.442 24.952C17.266 25.1265 17.1263 25.3342 17.031 25.563C16.9357 25.7917 16.8866 26.0371 16.8866 26.285C16.8866 26.5329 16.9357 26.7783 17.031 27.007C17.1263 27.2358 17.266 27.4435 17.442 27.618C17.6165 27.794 17.8242 27.9337 18.053 28.029C18.2817 28.1243 18.5271 28.1734 18.775 28.1734C19.0229 28.1734 19.2683 28.1243 19.497 28.029C19.7258 27.9337 19.9335 27.794 20.108 27.618L22.53 25.1773L24.952 27.618C25.1265 27.794 25.3342 27.9337 25.563 28.029C25.7917 28.1243 26.0371 28.1734 26.285 28.1734C26.5329 28.1734 26.7783 28.1243 27.007 28.029C27.2358 27.9337 27.4435 27.794 27.618 27.618C27.794 27.4435 27.9337 27.2358 28.029 27.007C28.1243 26.7783 28.1734 26.5329 28.1734 26.285C28.1734 26.0371 28.1243 25.7917 28.029 25.563C27.9337 25.3342 27.794 25.1265 27.618 24.952L25.1773 22.53L27.618 20.108C27.794 19.9335 27.9337 19.7258 28.029 19.497C28.1243 19.2683 28.1734 19.0229 28.1734 18.775C28.1734 18.5271 28.1243 18.2817 28.029 18.053C27.9337 17.8242 27.794 17.6165 27.618 17.442Z"
        fill="#444054" />
</svg>