<svg width="46" height="61" viewBox="0 0 46 61" fill="none" xmlns="http://www.w3.org/2000/svg">
    <path
        d="M20.7146 58.8678C3.66476 34.1507 0.5 31.6139 0.5 22.53C0.5 10.087 10.587 0 23.03 0C35.473 0 45.56 10.087 45.56 22.53C45.56 31.6139 42.3952 34.1507 25.3454 58.8678C24.2266 60.4841 21.8333 60.484 20.7146 58.8678ZM23.03 31.9175C28.2146 31.9175 32.4175 27.7146 32.4175 22.53C32.4175 17.3454 28.2146 13.1425 23.03 13.1425C17.8454 13.1425 13.6425 17.3454 13.6425 22.53C13.6425 27.7146 17.8454 31.9175 23.03 31.9175Z"
        fill="#E68383" />
</svg>