<svg width="397" height="19" viewBox="0 0 397 19" fill="none" xmlns="http://www.w3.org/2000/svg">
<line x1="233" y1="8.5" x2="397" y2="8.5" stroke="white"/>
<path d="M199.411 11.6335C199.172 13.0312 198.71 14.218 198.023 15.1939C197.342 16.1697 196.509 16.9112 195.524 17.4183C194.544 17.9254 193.487 18.179 192.354 18.179C191.165 18.179 190.14 17.9084 189.279 17.3672C188.423 16.826 187.803 16.044 187.419 15.0213C187.036 13.9943 186.963 12.7564 187.202 11.3075C187.432 9.90554 187.89 8.71662 188.576 7.74077C189.262 6.76065 190.099 6.01491 191.088 5.50355C192.077 4.98793 193.14 4.73011 194.278 4.73011C195.458 4.73011 196.477 5.00284 197.333 5.5483C198.194 6.09375 198.814 6.8821 199.193 7.91335C199.577 8.94034 199.649 10.1804 199.411 11.6335ZM196.656 11.3075C196.805 10.4084 196.798 9.65412 196.636 9.04474C196.479 8.43111 196.189 7.96662 195.767 7.65128C195.345 7.33594 194.812 7.17827 194.169 7.17827C193.47 7.17827 192.829 7.35298 192.245 7.70241C191.665 8.05185 191.175 8.55895 190.775 9.22372C190.379 9.88423 190.104 10.6875 189.95 11.6335C189.797 12.5369 189.801 13.2912 189.963 13.8963C190.129 14.5014 190.425 14.9595 190.852 15.2706C191.282 15.5774 191.817 15.7308 192.456 15.7308C193.151 15.7308 193.786 15.5604 194.361 15.2195C194.94 14.8743 195.428 14.3736 195.825 13.7173C196.221 13.0568 196.498 12.2536 196.656 11.3075ZM200.4 18L202.573 4.90909H207.738C208.726 4.90909 209.54 5.08381 210.18 5.43324C210.823 5.78267 211.275 6.27912 211.535 6.92259C211.799 7.56179 211.861 8.31605 211.72 9.18537C211.575 10.0547 211.262 10.8004 210.78 11.4226C210.303 12.0447 209.681 12.5241 208.914 12.8608C208.151 13.1932 207.267 13.3594 206.261 13.3594H202.803L203.187 11.1349H206.191C206.719 11.1349 207.171 11.0625 207.546 10.9176C207.921 10.7727 208.217 10.5554 208.434 10.2656C208.656 9.97585 208.801 9.61577 208.869 9.18537C208.942 8.74645 208.916 8.37997 208.792 8.08594C208.669 7.78764 208.445 7.56179 208.121 7.40838C207.797 7.25071 207.371 7.17188 206.843 7.17188H204.976L203.167 18H200.4ZM208.454 12.0426L210.723 18H207.667L205.469 12.0426H208.454Z" fill="white"/>
<line y1="8.5" x2="164" y2="8.5" stroke="white"/>
</svg>
