<?xml version="1.0" ?>
<!DOCTYPE svg  PUBLIC '-//W3C//DTD SVG 1.1//EN'  'http://www.w3.org/Graphics/SVG/1.1/DTD/svg11.dtd'>
<!-- Uploaded to: SVG Repo, www.svgrepo.com, Generator: SVG Repo Mixer Tools -->
<svg width="800px" height="800px" viewBox="0 0 512 512" enable-background="new 0 0 512 512" id="Layer_1" version="1.1" xml:space="preserve" xmlns="http://www.w3.org/2000/svg" xmlns:xlink="http://www.w3.org/1999/xlink">
<g>
<g>
<polygon fill="#3C74BA" points="79.983,356.023 90.585,377.506 114.293,380.951 97.139,397.672 101.188,421.283 79.983,410.135     58.779,421.283 62.829,397.672 45.675,380.951 69.381,377.506   "/>
<path d="M58.78,431.283c-2.073,0-4.137-0.644-5.879-1.91c-3.08-2.237-4.622-6.028-3.978-9.78l3.161-18.43    l-13.389-13.051c-2.726-2.657-3.707-6.631-2.531-10.251s4.306-6.259,8.073-6.807l18.503-2.688l8.275-16.769    c1.685-3.413,5.161-5.574,8.967-5.574c3.806,0,7.283,2.161,8.967,5.574l8.276,16.769l18.505,2.688    c3.767,0.548,6.896,3.187,8.073,6.807s0.195,7.594-2.531,10.251l-13.39,13.051l3.16,18.43c0.644,3.752-0.899,7.543-3.979,9.78    s-7.163,2.531-10.531,0.762l-16.552-8.702l-16.55,8.702C61.969,430.903,60.372,431.283,58.78,431.283z M79.983,400.135    c1.599,0,3.197,0.383,4.653,1.148l3.271,1.72l-0.624-3.641c-0.557-3.244,0.519-6.554,2.876-8.852l2.645-2.577l-3.656-0.531    c-3.257-0.474-6.073-2.52-7.529-5.471l-1.635-3.313l-1.635,3.313c-1.457,2.951-4.272,4.997-7.529,5.471l-3.655,0.531l2.645,2.577    c2.357,2.298,3.433,5.607,2.876,8.852l-0.624,3.64l3.269-1.719C76.786,400.518,78.384,400.135,79.983,400.135z" fill="#444B54"/>
</g>
<g>
<polygon fill="#3C74BA" points="197.327,356.023 207.929,377.506 231.637,380.951 214.483,397.672 218.532,421.283     197.327,410.135 176.123,421.283 180.172,397.672 163.019,380.951 186.725,377.506   "/>
<path d="M176.124,431.283c-2.073,0-4.137-0.644-5.879-1.91c-3.08-2.237-4.622-6.028-3.978-9.78l3.161-18.43    l-13.389-13.051c-2.726-2.657-3.707-6.631-2.531-10.251s4.306-6.259,8.073-6.807l18.503-2.688l8.275-16.769    c1.685-3.413,5.161-5.574,8.967-5.574c3.806,0,7.283,2.161,8.967,5.574l8.276,16.769l18.505,2.688    c3.767,0.548,6.896,3.187,8.073,6.807s0.195,7.594-2.531,10.251l-13.39,13.051l3.16,18.43c0.644,3.752-0.899,7.543-3.979,9.78    c-3.079,2.237-7.163,2.531-10.531,0.762l-16.552-8.702l-16.55,8.702C179.313,430.903,177.715,431.283,176.124,431.283z     M197.327,400.135c1.599,0,3.197,0.383,4.653,1.148l3.271,1.72l-0.624-3.641c-0.557-3.244,0.519-6.554,2.876-8.852l2.645-2.577    l-3.656-0.531c-3.257-0.474-6.073-2.52-7.529-5.471l-1.635-3.313l-1.635,3.313c-1.457,2.951-4.272,4.997-7.529,5.471l-3.655,0.531    l2.645,2.577c2.357,2.298,3.433,5.607,2.876,8.852l-0.624,3.64l3.269-1.719C194.13,400.518,195.728,400.135,197.327,400.135z" fill="#444B54"/>
</g>
<g>
<polygon fill="#3C74BA" points="314.67,356.023 325.273,377.506 348.98,380.951 331.826,397.672 335.875,421.283 314.67,410.135     293.467,421.283 297.516,397.672 280.363,380.951 304.068,377.506   "/>
<path d="M335.874,431.283c-1.592,0-3.189-0.38-4.652-1.148l-16.552-8.702l-16.549,8.702    c-3.37,1.77-7.453,1.477-10.532-0.761s-4.621-6.029-3.979-9.781l3.161-18.43l-13.389-13.052c-2.726-2.656-3.706-6.63-2.53-10.25    c1.177-3.62,4.306-6.259,8.072-6.807l18.503-2.688l8.274-16.769c1.685-3.413,5.161-5.574,8.968-5.574    c3.806,0,7.282,2.161,8.967,5.574l8.277,16.769l18.505,2.688c3.767,0.548,6.896,3.187,8.072,6.807    c1.176,3.62,0.195,7.594-2.53,10.251l-13.39,13.051l3.16,18.43c0.643,3.752-0.899,7.543-3.979,9.78    C340.011,430.639,337.947,431.283,335.874,431.283z M314.67,400.135c1.599,0,3.197,0.383,4.653,1.148l3.271,1.72l-0.625-3.641    c-0.556-3.244,0.52-6.554,2.876-8.852l2.646-2.577l-3.656-0.531c-3.257-0.474-6.072-2.52-7.528-5.471l-1.636-3.313l-1.635,3.313    c-1.457,2.951-4.272,4.997-7.529,5.471l-3.655,0.531l2.645,2.578c2.356,2.297,3.432,5.606,2.876,8.851l-0.624,3.64l3.268-1.719    C311.473,400.518,313.071,400.135,314.67,400.135z" fill="#444B54"/>
</g>
<g>
<polygon fill="#3C74BA" points="432.014,356.023 442.617,377.506 466.324,380.951 449.17,397.672 453.219,421.283     432.014,410.135 410.811,421.283 414.859,397.672 397.707,380.951 421.412,377.506   "/>
<path d="M453.218,431.283c-1.592,0-3.189-0.38-4.652-1.148l-16.552-8.702l-16.549,8.702    c-3.371,1.77-7.452,1.477-10.532-0.761c-3.079-2.237-4.621-6.029-3.979-9.781l3.161-18.43l-13.389-13.052    c-2.726-2.656-3.706-6.63-2.53-10.25c1.177-3.62,4.306-6.259,8.072-6.807l18.503-2.688l8.274-16.769    c1.685-3.413,5.161-5.574,8.968-5.574c3.806,0,7.282,2.161,8.967,5.574l8.277,16.769l18.505,2.688    c3.767,0.548,6.896,3.187,8.072,6.807c1.176,3.62,0.195,7.594-2.53,10.251l-13.39,13.051l3.16,18.43    c0.643,3.752-0.899,7.543-3.979,9.78C457.354,430.639,455.291,431.283,453.218,431.283z M432.014,400.135    c1.599,0,3.197,0.383,4.653,1.148l3.271,1.72l-0.625-3.641c-0.556-3.244,0.52-6.554,2.876-8.852l2.646-2.577l-3.656-0.531    c-3.257-0.474-6.072-2.52-7.528-5.471l-1.636-3.313l-1.635,3.313c-1.457,2.951-4.272,4.997-7.529,5.471l-3.655,0.531l2.645,2.578    c2.356,2.297,3.432,5.606,2.876,8.851l-0.624,3.64l3.268-1.719C428.816,400.518,430.415,400.135,432.014,400.135z" fill="#444B54"/>
</g>
<g>
<path d="M176.537,302.965c-2.073,0-4.136-0.644-5.879-1.91c-3.079-2.237-4.622-6.028-3.978-9.78l11.662-67.994    l-49.396-48.153c-2.726-2.656-3.707-6.631-2.53-10.25c1.176-3.62,4.306-6.259,8.073-6.807l68.265-9.919l30.529-61.86    c1.685-3.413,5.161-5.574,8.967-5.574c3.806,0,7.283,2.161,8.967,5.574l30.531,61.859l68.271,9.92    c3.768,0.548,6.896,3.187,8.073,6.807c1.176,3.62,0.195,7.594-2.53,10.251l-49.399,48.152l11.66,67.994    c0.643,3.752-0.899,7.543-3.979,9.78c-3.08,2.237-7.163,2.531-10.531,0.762l-61.064-32.104l-61.06,32.104    C179.726,302.585,178.128,302.965,176.537,302.965z M242.25,248.414c1.599,0,3.197,0.383,4.653,1.148l47.783,25.122l-9.124-53.205    c-0.556-3.244,0.52-6.554,2.876-8.852l38.655-37.679l-53.423-7.762c-3.258-0.474-6.073-2.52-7.53-5.471l-23.89-48.404    l-23.889,48.404c-1.457,2.951-4.272,4.997-7.529,5.471l-53.417,7.762l38.652,37.68c2.356,2.297,3.432,5.606,2.875,8.851    l-9.125,53.204l47.778-25.121C239.052,248.797,240.651,248.414,242.25,248.414z" fill="#444B54"/>
</g>
<g>
<polygon fill="#3C74BA" points="79.983,356.023 90.585,377.506 114.293,380.951 97.139,397.672 101.188,421.283 79.983,410.135     58.779,421.283 62.829,397.672 45.675,380.951 69.381,377.506   "/>
<path d="M58.78,431.283c-2.073,0-4.137-0.644-5.879-1.91c-3.08-2.237-4.622-6.028-3.978-9.78l3.161-18.43    l-13.389-13.051c-2.726-2.657-3.707-6.631-2.531-10.251s4.306-6.259,8.073-6.807l18.503-2.688l8.275-16.769    c1.685-3.413,5.161-5.574,8.967-5.574c3.806,0,7.283,2.161,8.967,5.574l8.276,16.769l18.505,2.688    c3.767,0.548,6.896,3.187,8.073,6.807s0.195,7.594-2.531,10.251l-13.39,13.051l3.16,18.43c0.644,3.752-0.899,7.543-3.979,9.78    s-7.163,2.531-10.531,0.762l-16.552-8.702l-16.55,8.702C61.969,430.903,60.372,431.283,58.78,431.283z M79.983,400.135    c1.599,0,3.197,0.383,4.653,1.148l3.271,1.72l-0.624-3.641c-0.557-3.244,0.519-6.554,2.876-8.852l2.645-2.577l-3.656-0.531    c-3.257-0.474-6.073-2.52-7.529-5.471l-1.635-3.313l-1.635,3.313c-1.457,2.951-4.272,4.997-7.529,5.471l-3.655,0.531l2.645,2.577    c2.357,2.298,3.433,5.607,2.876,8.852l-0.624,3.64l3.269-1.719C76.786,400.518,78.384,400.135,79.983,400.135z" fill="#444B54"/>
</g>
<g>
<polygon fill="#3C74BA" points="197.327,356.023 207.929,377.506 231.637,380.951 214.483,397.672 218.532,421.283     197.327,410.135 176.123,421.283 180.172,397.672 163.019,380.951 186.725,377.506   "/>
<path d="M176.124,431.283c-2.073,0-4.137-0.644-5.879-1.91c-3.08-2.237-4.622-6.028-3.978-9.78l3.161-18.43    l-13.389-13.051c-2.726-2.657-3.707-6.631-2.531-10.251s4.306-6.259,8.073-6.807l18.503-2.688l8.275-16.769    c1.685-3.413,5.161-5.574,8.967-5.574c3.806,0,7.283,2.161,8.967,5.574l8.276,16.769l18.505,2.688    c3.767,0.548,6.896,3.187,8.073,6.807s0.195,7.594-2.531,10.251l-13.39,13.051l3.16,18.43c0.644,3.752-0.899,7.543-3.979,9.78    c-3.079,2.237-7.163,2.531-10.531,0.762l-16.552-8.702l-16.55,8.702C179.313,430.903,177.715,431.283,176.124,431.283z     M197.327,400.135c1.599,0,3.197,0.383,4.653,1.148l3.271,1.72l-0.624-3.641c-0.557-3.244,0.519-6.554,2.876-8.852l2.645-2.577    l-3.656-0.531c-3.257-0.474-6.073-2.52-7.529-5.471l-1.635-3.313l-1.635,3.313c-1.457,2.951-4.272,4.997-7.529,5.471l-3.655,0.531    l2.645,2.577c2.357,2.298,3.433,5.607,2.876,8.852l-0.624,3.64l3.269-1.719C194.13,400.518,195.728,400.135,197.327,400.135z" fill="#444B54"/>
</g>
<g>
<polygon fill="#3C74BA" points="314.67,356.023 325.273,377.506 348.98,380.951 331.826,397.672 335.875,421.283 314.67,410.135     293.467,421.283 297.516,397.672 280.363,380.951 304.068,377.506   "/>
<path d="M335.874,431.283c-1.592,0-3.189-0.38-4.652-1.148l-16.552-8.702l-16.549,8.702    c-3.37,1.77-7.453,1.477-10.532-0.761s-4.621-6.029-3.979-9.781l3.161-18.43l-13.389-13.052c-2.726-2.656-3.706-6.63-2.53-10.25    c1.177-3.62,4.306-6.259,8.072-6.807l18.503-2.688l8.274-16.769c1.685-3.413,5.161-5.574,8.968-5.574    c3.806,0,7.282,2.161,8.967,5.574l8.277,16.769l18.505,2.688c3.767,0.548,6.896,3.187,8.072,6.807    c1.176,3.62,0.195,7.594-2.53,10.251l-13.39,13.051l3.16,18.43c0.643,3.752-0.899,7.543-3.979,9.78    C340.011,430.639,337.947,431.283,335.874,431.283z M314.67,400.135c1.599,0,3.197,0.383,4.653,1.148l3.271,1.72l-0.625-3.641    c-0.556-3.244,0.52-6.554,2.876-8.852l2.646-2.577l-3.656-0.531c-3.257-0.474-6.072-2.52-7.528-5.471l-1.636-3.313l-1.635,3.313    c-1.457,2.951-4.272,4.997-7.529,5.471l-3.655,0.531l2.645,2.578c2.356,2.297,3.432,5.606,2.876,8.851l-0.624,3.64l3.268-1.719    C311.473,400.518,313.071,400.135,314.67,400.135z" fill="#444B54"/>
</g>
<g>
<polygon fill="#3C74BA" points="432.014,356.023 442.617,377.506 466.324,380.951 449.17,397.672 453.219,421.283     432.014,410.135 410.811,421.283 414.859,397.672 397.707,380.951 421.412,377.506   "/>
<path d="M453.218,431.283c-1.592,0-3.189-0.38-4.652-1.148l-16.552-8.702l-16.549,8.702    c-3.371,1.77-7.452,1.477-10.532-0.761c-3.079-2.237-4.621-6.029-3.979-9.781l3.161-18.43l-13.389-13.052    c-2.726-2.656-3.706-6.63-2.53-10.25c1.177-3.62,4.306-6.259,8.072-6.807l18.503-2.688l8.274-16.769    c1.685-3.413,5.161-5.574,8.968-5.574c3.806,0,7.282,2.161,8.967,5.574l8.277,16.769l18.505,2.688    c3.767,0.548,6.896,3.187,8.072,6.807c1.176,3.62,0.195,7.594-2.53,10.251l-13.39,13.051l3.16,18.43    c0.643,3.752-0.899,7.543-3.979,9.78C457.354,430.639,455.291,431.283,453.218,431.283z M432.014,400.135    c1.599,0,3.197,0.383,4.653,1.148l3.271,1.72l-0.625-3.641c-0.556-3.244,0.52-6.554,2.876-8.852l2.646-2.577l-3.656-0.531    c-3.257-0.474-6.072-2.52-7.528-5.471l-1.636-3.313l-1.635,3.313c-1.457,2.951-4.272,4.997-7.529,5.471l-3.655,0.531l2.645,2.578    c2.356,2.297,3.432,5.606,2.876,8.851l-0.624,3.64l3.268-1.719C428.816,400.518,430.415,400.135,432.014,400.135z" fill="#444B54"/>
</g>
<g>
<polygon fill="#D9DCE1" points="242.25,90.717 275.107,157.291 348.582,167.967 295.418,219.789 307.967,292.965 242.25,258.414     176.536,292.965 189.086,219.789 135.926,167.967 209.394,157.291   "/>
<path d="M176.537,302.965c-2.073,0-4.136-0.644-5.879-1.91c-3.079-2.237-4.622-6.028-3.978-9.78l11.662-67.994    l-49.396-48.153c-2.726-2.656-3.707-6.631-2.53-10.25c1.176-3.62,4.306-6.259,8.073-6.807l68.265-9.919l30.529-61.86    c1.685-3.413,5.161-5.574,8.967-5.574c3.806,0,7.283,2.161,8.967,5.574l30.531,61.859l68.271,9.92    c3.768,0.548,6.896,3.187,8.073,6.807c1.176,3.62,0.195,7.594-2.53,10.251l-49.399,48.152l11.66,67.994    c0.643,3.752-0.899,7.543-3.979,9.78c-3.08,2.237-7.163,2.531-10.531,0.762l-61.064-32.104l-61.06,32.104    C179.726,302.585,178.128,302.965,176.537,302.965z M242.25,248.414c1.599,0,3.197,0.383,4.653,1.148l47.783,25.122l-9.124-53.205    c-0.556-3.244,0.52-6.554,2.876-8.852l38.655-37.679l-53.423-7.762c-3.258-0.474-6.073-2.52-7.53-5.471l-23.89-48.404    l-23.889,48.404c-1.457,2.951-4.272,4.997-7.529,5.471l-53.417,7.762l38.652,37.68c2.356,2.297,3.432,5.606,2.875,8.851    l-9.125,53.204l47.778-25.121C239.052,248.797,240.651,248.414,242.25,248.414z" fill="#444B54"/>
</g>
</g>
</svg>