<svg width="316" height="316" viewBox="0 0 316 316" fill="none" xmlns="http://www.w3.org/2000/svg">
    <path
        d="M137.561 0.989713C62.2478 0.989713 0.98233 62.2552 0.98233 137.569C0.98233 212.883 62.2478 274.148 137.561 274.148C160.585 274.148 183.218 268.685 202.339 258.149C203.871 259.992 205.569 261.69 207.412 263.222L246.435 302.244C250.038 306.299 254.432 309.574 259.347 311.869C264.261 314.164 269.593 315.43 275.015 315.589C280.437 315.749 285.834 314.799 290.876 312.797C295.917 310.795 300.496 307.784 304.331 303.949C308.167 300.113 311.178 295.534 313.18 290.493C315.182 285.452 316.132 280.054 315.972 274.632C315.813 269.211 314.547 263.879 312.252 258.964C309.957 254.049 306.682 249.655 302.627 246.052L263.605 207.029C261.704 205.128 259.611 203.428 257.361 201.956C267.897 182.835 274.531 160.592 274.531 137.179C274.531 61.865 213.265 0.599487 137.952 0.599487L137.561 0.989713ZM137.561 40.0123C191.803 40.0123 235.118 83.3274 235.118 137.569C235.118 163.324 225.753 187.128 209.363 204.688C208.973 205.078 208.583 205.468 208.192 205.858C206.349 207.39 204.651 209.088 203.119 210.931C185.95 226.54 162.536 235.516 137.171 235.516C82.9298 235.516 39.6147 192.201 39.6147 137.959C39.6147 83.7177 82.9298 40.4026 137.171 40.4026L137.561 40.0123Z"
        fill="black" />
</svg>