<?xml version="1.0" encoding="utf-8"?>

<!-- Uploaded to: SVG Repo, www.svgrepo.com, Generator: SVG Repo Mixer Tools -->
<svg height="400px" width="400px" version="1.1" id="Layer_1" xmlns="http://www.w3.org/2000/svg" xmlns:xlink="http://www.w3.org/1999/xlink" 
	 viewBox="0 0 100 100" enable-background="new 0 0 100 100" xml:space="preserve">
<g>
	<path fill="#F0566F" d="M54.813,49.275c0,0,3.365-4.473,10.552,0.336c7.188,4.81,13.396,9.36,22.86,8.963l6.269-18.718
		c-9.464,0.396-14.831-3.872-22.019-8.681c-7.188-4.81-11.394-0.618-11.394-0.618L54.813,49.275z"/>
	<path fill="#3792CF" d="M71.056,72.472c-0.26-0.638-1.163-0.638-1.423,0l-8.986,22.022h19.396L71.056,72.472z"/>
	<path fill="#6AC9CC" d="M60.201,76.383c-0.214-0.525-0.957-0.525-1.171,0l-7.39,18.111h9.006l3.472-8.51L60.201,76.383z"/>
	<ellipse fill="#FEE36F" cx="25.73" cy="25.703" rx="14.982" ry="14.988"/>
	<path fill="#136296" d="M94.494,93.988H80.382l-8.858-21.707c-0.197-0.482-0.66-0.793-1.18-0.793c-0.52,0-0.983,0.311-1.18,0.793
		l-5.046,12.365l-3.45-8.454c-0.176-0.43-0.589-0.708-1.053-0.708c-0.464,0-0.878,0.278-1.053,0.708L51.3,93.988h-10.93
		l14.892-44.464c0.405-0.469,3.544-3.693,9.821,0.507l1.133,0.761c6.352,4.269,12.367,8.312,20.881,8.312
		c0.378,0,0.761-0.008,1.148-0.024c0.209-0.009,0.392-0.146,0.458-0.345l6.269-18.718c0.053-0.158,0.025-0.332-0.075-0.465
		c-0.1-0.133-0.258-0.211-0.425-0.201c-8.489,0.357-13.533-3.059-19.915-7.381c-0.59-0.4-1.189-0.805-1.801-1.215
		c-5.12-3.427-8.867-2.425-10.722-1.45l2.057-6.141c0.089-0.265-0.054-0.552-0.319-0.64c-0.266-0.089-0.552,0.054-0.64,0.319
		L39.304,93.988H5.506C5.226,93.988,5,94.215,5,94.494C5,94.774,5.226,95,5.506,95H51.64h9.006h19.396h14.452
		C94.774,95,95,94.774,95,94.494C95,94.215,94.774,93.988,94.494,93.988z M61.52,30.843c0.595-0.512,4.44-3.419,10.675,0.753
		c0.611,0.409,1.208,0.814,1.797,1.212c6.102,4.133,11.393,7.716,19.793,7.576l-5.927,17.698
		c-8.611,0.257-14.391-3.636-21.076-8.129l-1.135-0.762c-2.588-1.732-4.723-2.3-6.412-2.3c-1.465,0-2.594,0.428-3.39,0.895
		l1.891-5.647L61.52,30.843z M59.498,76.575c0.043-0.105,0.192-0.105,0.235,0l3.84,9.41l-3.266,8.004h-7.914L59.498,76.575z
		 M61.399,93.988l8.702-21.325c0.06-0.148,0.19-0.164,0.244-0.164c0.053,0,0.183,0.016,0.243,0.164l8.702,21.325H61.399z"/>
	<g>
		<path fill="#136296" d="M26.909,6.011c0.824,0.049,1.65,0.149,2.456,0.3c0.031,0.006,0.062,0.009,0.093,0.009
			c0.239,0,0.451-0.17,0.496-0.413c0.051-0.274-0.13-0.539-0.404-0.59c-0.847-0.158-1.716-0.264-2.582-0.315
			c-0.28-0.02-0.518,0.196-0.534,0.475C26.418,5.755,26.63,5.995,26.909,6.011z"/>
		<path fill="#136296" d="M40.11,39.201c-0.564,0.601-1.17,1.171-1.803,1.696c-0.215,0.178-0.245,0.497-0.067,0.712
			c0.1,0.121,0.244,0.183,0.39,0.183c0.114,0,0.228-0.038,0.322-0.116c0.665-0.552,1.303-1.152,1.895-1.783
			c0.191-0.204,0.181-0.524-0.022-0.715C40.621,38.988,40.301,38.998,40.11,39.201z"/>
		<path fill="#136296" d="M22.056,45.087c-0.808-0.152-1.615-0.358-2.398-0.611c-0.267-0.085-0.551,0.06-0.637,0.326
			c-0.086,0.266,0.06,0.551,0.326,0.637c0.823,0.266,1.671,0.482,2.522,0.643c0.032,0.006,0.063,0.009,0.094,0.009
			c0.238,0,0.451-0.169,0.496-0.412C22.511,45.404,22.33,45.139,22.056,45.087z"/>
		<path fill="#136296" d="M36.306,42.355c-0.695,0.443-1.424,0.845-2.166,1.195c-0.253,0.119-0.361,0.421-0.241,0.673
			c0.086,0.183,0.268,0.29,0.457,0.29c0.072,0,0.146-0.016,0.216-0.048c0.78-0.368,1.546-0.791,2.277-1.257
			c0.236-0.15,0.305-0.463,0.155-0.698C36.854,42.275,36.542,42.205,36.306,42.355z"/>
		<path fill="#136296" d="M26.988,45.39c-0.413,0.026-0.832,0.039-1.246,0.039c-0.408-0.017-0.822-0.012-1.23-0.037
			c-0.27-0.02-0.518,0.195-0.535,0.474s0.195,0.518,0.474,0.535c0.424,0.026,0.855,0.039,1.28,0.039c0.004,0,0.008,0,0.012,0
			c0.435,0,0.876-0.014,1.31-0.041c0.279-0.018,0.49-0.258,0.473-0.537C27.506,45.584,27.269,45.374,26.988,45.39z"/>
		<path fill="#136296" d="M31.765,6.917c0.783,0.251,1.558,0.556,2.305,0.905c0.069,0.032,0.142,0.047,0.214,0.047
			c0.19,0,0.373-0.108,0.458-0.292c0.118-0.253,0.009-0.554-0.244-0.673c-0.785-0.367-1.601-0.687-2.424-0.951
			c-0.267-0.086-0.551,0.061-0.636,0.327C31.352,6.547,31.499,6.832,31.765,6.917z"/>
		<path fill="#136296" d="M44.815,20.721c0.207,0.797,0.366,1.614,0.471,2.43c0.033,0.255,0.25,0.441,0.501,0.441
			c0.021,0,0.043-0.001,0.065-0.004c0.277-0.036,0.473-0.289,0.437-0.566c-0.11-0.858-0.277-1.718-0.495-2.556
			c-0.07-0.27-0.346-0.433-0.617-0.362C44.907,20.174,44.745,20.45,44.815,20.721z"/>
		<path fill="#136296" d="M45.451,30.242c-0.273-0.071-0.546,0.094-0.615,0.365c-0.204,0.799-0.461,1.591-0.764,2.356
			c-0.103,0.26,0.024,0.553,0.284,0.656c0.061,0.024,0.124,0.036,0.186,0.036c0.201,0,0.392-0.121,0.47-0.32
			c0.319-0.804,0.589-1.638,0.804-2.478C45.884,30.587,45.721,30.311,45.451,30.242z"/>
		<path fill="#136296" d="M46.46,25.62c0-0.279-0.226-0.506-0.506-0.506c-0.279,0-0.506,0.226-0.506,0.506l0,0.083
			c0,0.827-0.052,1.658-0.153,2.471c-0.035,0.277,0.162,0.53,0.439,0.565c0.021,0.003,0.042,0.004,0.063,0.004
			c0.251,0,0.469-0.187,0.501-0.443c0.107-0.855,0.161-1.729,0.161-2.601L46.46,25.62z"/>
		<path fill="#136296" d="M43.703,35.004c-0.245-0.135-0.552-0.046-0.687,0.199c-0.397,0.721-0.844,1.424-1.328,2.09
			c-0.164,0.226-0.114,0.542,0.111,0.707c0.09,0.065,0.194,0.097,0.297,0.097c0.156,0,0.311-0.072,0.409-0.208
			c0.509-0.7,0.979-1.44,1.396-2.198C44.037,35.447,43.947,35.139,43.703,35.004z"/>
		<path fill="#136296" d="M41.644,14.052c0.099,0.135,0.253,0.207,0.408,0.207c0.104,0,0.208-0.032,0.298-0.098
			c0.225-0.165,0.274-0.482,0.109-0.707c-0.511-0.697-1.072-1.37-1.666-1.999c-0.192-0.203-0.512-0.212-0.715-0.02
			c-0.203,0.192-0.212,0.512-0.02,0.715C40.624,12.748,41.158,13.388,41.644,14.052z"/>
		<path fill="#136296" d="M36.242,9.01c0.696,0.439,1.371,0.927,2.007,1.451c0.094,0.077,0.208,0.115,0.321,0.115
			c0.146,0,0.291-0.063,0.391-0.184c0.177-0.216,0.146-0.534-0.069-0.712c-0.668-0.55-1.378-1.063-2.109-1.525
			c-0.236-0.149-0.548-0.079-0.697,0.158C35.935,8.548,36.006,8.861,36.242,9.01z"/>
		<path fill="#136296" d="M44.042,18.369c0.079,0.198,0.269,0.318,0.47,0.318c0.062,0,0.126-0.012,0.188-0.037
			c0.259-0.104,0.385-0.398,0.281-0.657c-0.321-0.802-0.697-1.592-1.117-2.349c-0.136-0.244-0.444-0.332-0.688-0.196
			c-0.244,0.136-0.332,0.444-0.196,0.688C43.379,16.855,43.737,17.607,44.042,18.369z"/>
		<path fill="#136296" d="M31.84,44.464c-0.781,0.254-1.588,0.461-2.397,0.616c-0.274,0.052-0.454,0.317-0.402,0.592
			c0.046,0.242,0.258,0.411,0.496,0.411c0.031,0,0.063-0.003,0.095-0.009c0.851-0.162,1.699-0.38,2.52-0.648
			c0.265-0.086,0.411-0.372,0.324-0.637C32.391,44.523,32.107,44.378,31.84,44.464z"/>
		<path fill="#136296" d="M6.719,18.765c0.061,0.024,0.123,0.035,0.185,0.035c0.202,0,0.392-0.122,0.471-0.321
			c0.301-0.765,0.654-1.52,1.05-2.243c0.134-0.245,0.044-0.552-0.2-0.687c-0.245-0.135-0.553-0.045-0.686,0.201
			c-0.416,0.76-0.788,1.553-1.105,2.358C6.332,18.369,6.459,18.663,6.719,18.765z"/>
		<path fill="#136296" d="M8.462,35.235c-0.135-0.245-0.442-0.333-0.687-0.198c-0.244,0.135-0.333,0.443-0.198,0.687
			c0.418,0.756,0.889,1.494,1.399,2.194c0.099,0.136,0.253,0.207,0.409,0.207c0.103,0,0.208-0.032,0.298-0.097
			c0.225-0.165,0.275-0.481,0.11-0.707C9.307,36.656,8.86,35.954,8.462,35.235z"/>
		<path fill="#136296" d="M6.635,30.646c-0.07-0.27-0.344-0.433-0.616-0.363c-0.27,0.07-0.433,0.346-0.363,0.616
			c0.217,0.839,0.489,1.671,0.808,2.475c0.079,0.198,0.269,0.319,0.47,0.319c0.062,0,0.125-0.012,0.187-0.036
			c0.259-0.103,0.386-0.398,0.283-0.657C7.1,32.235,6.841,31.443,6.635,30.646z"/>
		<path fill="#136296" d="M5.732,28.78c0.277-0.035,0.473-0.288,0.438-0.566c-0.103-0.813-0.157-1.645-0.158-2.471
			c0-0.279-0.227-0.505-0.506-0.505c0,0,0,0-0.001,0C5.225,25.239,5,25.466,5,25.745c0.002,0.868,0.058,1.742,0.166,2.597
			c0.033,0.256,0.25,0.442,0.501,0.442C5.688,28.784,5.71,28.783,5.732,28.78z"/>
		<path fill="#136296" d="M5.596,23.711c0.021,0.002,0.042,0.004,0.062,0.004c0.252,0,0.47-0.188,0.501-0.444
			c0.1-0.817,0.254-1.636,0.456-2.433c0.069-0.271-0.095-0.546-0.366-0.614c-0.274-0.07-0.546,0.095-0.614,0.366
			c-0.212,0.838-0.374,1.699-0.479,2.558C5.122,23.425,5.319,23.677,5.596,23.711z"/>
		<path fill="#136296" d="M17.355,43.567c-0.744-0.349-1.474-0.751-2.17-1.192c-0.236-0.149-0.548-0.08-0.698,0.156
			c-0.149,0.236-0.079,0.549,0.156,0.698c0.732,0.464,1.5,0.886,2.282,1.254c0.07,0.033,0.143,0.048,0.215,0.048
			c0.19,0,0.372-0.107,0.458-0.291C17.716,43.987,17.608,43.685,17.355,43.567z"/>
		<path fill="#136296" d="M9.339,14.353c0.157,0,0.311-0.073,0.41-0.209c0.483-0.667,1.013-1.31,1.575-1.911
			c0.191-0.204,0.18-0.524-0.024-0.715c-0.203-0.19-0.524-0.18-0.715,0.024c-0.591,0.632-1.148,1.308-1.655,2.009
			c-0.164,0.226-0.113,0.542,0.113,0.706C9.133,14.322,9.237,14.353,9.339,14.353z"/>
		<path fill="#136296" d="M11.374,39.226c-0.192-0.204-0.512-0.212-0.715-0.021c-0.203,0.192-0.213,0.512-0.021,0.715
			c0.593,0.63,1.232,1.228,1.899,1.78c0.094,0.078,0.208,0.116,0.322,0.116c0.146,0,0.29-0.062,0.39-0.184
			c0.178-0.215,0.147-0.534-0.068-0.712C12.546,40.395,11.938,39.825,11.374,39.226z"/>
		<path fill="#136296" d="M21.882,6.342c0.032,0,0.064-0.003,0.096-0.009c0.807-0.155,1.633-0.261,2.455-0.314
			C24.712,6,24.923,5.76,24.905,5.481c-0.018-0.279-0.256-0.489-0.537-0.472c-0.865,0.056-1.733,0.167-2.581,0.331
			c-0.274,0.053-0.454,0.318-0.401,0.592C21.433,6.174,21.645,6.342,21.882,6.342z"/>
		<path fill="#136296" d="M17.068,7.921c0.073,0,0.147-0.016,0.217-0.049c0.743-0.353,1.517-0.662,2.298-0.918
			c0.265-0.087,0.41-0.373,0.323-0.638c-0.087-0.265-0.373-0.412-0.638-0.323c-0.822,0.27-1.635,0.594-2.417,0.966
			c-0.252,0.12-0.36,0.421-0.24,0.674C16.697,7.815,16.879,7.921,17.068,7.921z"/>
		<path fill="#136296" d="M12.801,10.651c0.114,0,0.229-0.038,0.323-0.117c0.632-0.526,1.304-1.018,1.998-1.462
			c0.235-0.15,0.304-0.463,0.153-0.699c-0.151-0.235-0.463-0.304-0.698-0.153c-0.729,0.466-1.435,0.983-2.099,1.536
			c-0.215,0.179-0.244,0.498-0.065,0.712C12.512,10.589,12.656,10.651,12.801,10.651z"/>
	</g>
	<path fill="#136296" d="M10.243,25.703c0,8.543,6.948,15.493,15.488,15.493s15.488-6.95,15.488-15.493S34.27,10.209,25.73,10.209
		S10.243,17.16,10.243,25.703z M25.73,11.221c7.982,0,14.476,6.496,14.476,14.482c0,7.985-6.494,14.482-14.476,14.482
		s-14.476-6.496-14.476-14.482C11.254,17.718,17.748,11.221,25.73,11.221z"/>
	<g>
		<path fill="#FFFFFF" d="M90.885,41.816c-0.263-0.096-0.553,0.04-0.648,0.302l-0.433,1.188c-0.096,0.263,0.04,0.553,0.302,0.648
			c0.057,0.021,0.116,0.031,0.173,0.031c0.206,0,0.4-0.128,0.475-0.333l0.433-1.188C91.283,42.202,91.148,41.912,90.885,41.816z"/>
		<path fill="#FFFFFF" d="M88.043,49.621c-0.261-0.096-0.553,0.04-0.648,0.302l-0.803,2.206c-0.096,0.262,0.039,0.553,0.302,0.648
			c0.057,0.021,0.116,0.031,0.173,0.031c0.206,0,0.4-0.127,0.475-0.333l0.803-2.205C88.44,50.007,88.305,49.717,88.043,49.621z"/>
		<path fill="#FFFFFF" d="M89.649,45.21c-0.262-0.096-0.552,0.04-0.648,0.302l-0.803,2.205c-0.096,0.263,0.039,0.553,0.302,0.648
			c0.057,0.021,0.116,0.031,0.173,0.031c0.206,0,0.4-0.128,0.475-0.333l0.803-2.205C90.047,45.596,89.912,45.306,89.649,45.21z"/>
		<path fill="#FFFFFF" d="M86.436,54.032c-0.261-0.095-0.553,0.04-0.648,0.302l-0.433,1.188c-0.096,0.263,0.04,0.553,0.302,0.649
			c0.057,0.021,0.116,0.031,0.173,0.031c0.206,0,0.4-0.127,0.475-0.332l0.433-1.188C86.834,54.418,86.699,54.128,86.436,54.032z"/>
	</g>
</g>
</svg>